<svg xmlns="http://www.w3.org/2000/svg" xmlns:xlink="http://www.w3.org/1999/xlink" width="1920" zoomAndPan="magnify" viewBox="0 0 1440 809.999993" height="1080" preserveAspectRatio="xMidYMid meet" version="1.0"><defs><g/><clipPath id="43805aa233"><path d="M 501 0 L 956.242188 0 L 956.242188 133.5 L 501 133.5 Z M 501 0 " clip-rule="nonzero"/></clipPath><clipPath id="91e37972c4"><path d="M 504.910156 294.050781 L 960.152344 294.050781 L 960.152344 427.550781 L 504.910156 427.550781 Z M 504.910156 294.050781 " clip-rule="nonzero"/></clipPath><clipPath id="5a9d2228e8"><path d="M 613.125 558.363281 L 699.503906 558.363281 L 699.503906 644.742188 L 613.125 644.742188 Z M 613.125 558.363281 " clip-rule="nonzero"/></clipPath><clipPath id="b2dd281094"><path d="M 0.125 0.363281 L 86.503906 0.363281 L 86.503906 86.742188 L 0.125 86.742188 Z M 0.125 0.363281 " clip-rule="nonzero"/></clipPath><clipPath id="f5a5ed9230"><rect x="0" width="87" y="0" height="87"/></clipPath><clipPath id="1e2b39c03d"><path d="M 613.125 558.363281 L 699.375 558.363281 L 699.375 644.613281 L 613.125 644.613281 Z M 613.125 558.363281 " clip-rule="nonzero"/></clipPath><clipPath id="3220d822a3"><path d="M 696.167969 558.363281 L 782.550781 558.363281 L 782.550781 644.742188 L 696.167969 644.742188 Z M 696.167969 558.363281 " clip-rule="nonzero"/></clipPath><clipPath id="c91960b431"><path d="M 0.167969 0.363281 L 86.550781 0.363281 L 86.550781 86.742188 L 0.167969 86.742188 Z M 0.167969 0.363281 " clip-rule="nonzero"/></clipPath><clipPath id="013d5302b4"><rect x="0" width="87" y="0" height="87"/></clipPath><clipPath id="13fcf13436"><path d="M 696.167969 558.363281 L 782.417969 558.363281 L 782.417969 644.613281 L 696.167969 644.613281 Z M 696.167969 558.363281 " clip-rule="nonzero"/></clipPath><clipPath id="d415daccf9"><path d="M 778.125 558.363281 L 864.503906 558.363281 L 864.503906 644.742188 L 778.125 644.742188 Z M 778.125 558.363281 " clip-rule="nonzero"/></clipPath><clipPath id="e6dc678ba2"><path d="M 0.125 0.363281 L 86.503906 0.363281 L 86.503906 86.742188 L 0.125 86.742188 Z M 0.125 0.363281 " clip-rule="nonzero"/></clipPath><clipPath id="f3fecbcfa6"><rect x="0" width="87" y="0" height="87"/></clipPath><clipPath id="cf67b84ea2"><path d="M 778.125 558.363281 L 864.375 558.363281 L 864.375 644.613281 L 778.125 644.613281 Z M 778.125 558.363281 " clip-rule="nonzero"/></clipPath><clipPath id="86afb6632f"><path d="M 613.125 641.40625 L 699.503906 641.40625 L 699.503906 727.789062 L 613.125 727.789062 Z M 613.125 641.40625 " clip-rule="nonzero"/></clipPath><clipPath id="713524395f"><path d="M 0.125 0.40625 L 86.503906 0.40625 L 86.503906 86.789062 L 0.125 86.789062 Z M 0.125 0.40625 " clip-rule="nonzero"/></clipPath><clipPath id="813dab251c"><rect x="0" width="87" y="0" height="87"/></clipPath><clipPath id="29351c725c"><path d="M 613.125 641.40625 L 699.375 641.40625 L 699.375 727.65625 L 613.125 727.65625 Z M 613.125 641.40625 " clip-rule="nonzero"/></clipPath><clipPath id="29126ddfca"><path d="M 696.167969 641.40625 L 782.550781 641.40625 L 782.550781 727.789062 L 696.167969 727.789062 Z M 696.167969 641.40625 " clip-rule="nonzero"/></clipPath><clipPath id="1729be6bc5"><path d="M 0.167969 0.40625 L 86.550781 0.40625 L 86.550781 86.789062 L 0.167969 86.789062 Z M 0.167969 0.40625 " clip-rule="nonzero"/></clipPath><clipPath id="5a60c3445a"><rect x="0" width="87" y="0" height="87"/></clipPath><clipPath id="ece69856fe"><path d="M 696.167969 641.40625 L 782.417969 641.40625 L 782.417969 727.65625 L 696.167969 727.65625 Z M 696.167969 641.40625 " clip-rule="nonzero"/></clipPath><clipPath id="28ae91c311"><path d="M 778.125 641.40625 L 864.503906 641.40625 L 864.503906 727.789062 L 778.125 727.789062 Z M 778.125 641.40625 " clip-rule="nonzero"/></clipPath><clipPath id="64ed2c7285"><path d="M 0.125 0.40625 L 86.503906 0.40625 L 86.503906 86.789062 L 0.125 86.789062 Z M 0.125 0.40625 " clip-rule="nonzero"/></clipPath><clipPath id="57b14d10aa"><rect x="0" width="87" y="0" height="87"/></clipPath><clipPath id="a781131548"><path d="M 778.125 641.40625 L 864.375 641.40625 L 864.375 727.65625 L 778.125 727.65625 Z M 778.125 641.40625 " clip-rule="nonzero"/></clipPath><clipPath id="bdb9562793"><path d="M 613.125 723.621094 L 699.503906 723.621094 L 699.503906 810 L 613.125 810 Z M 613.125 723.621094 " clip-rule="nonzero"/></clipPath><clipPath id="f5a424b942"><path d="M 0.125 0.621094 L 86.503906 0.621094 L 86.503906 87 L 0.125 87 Z M 0.125 0.621094 " clip-rule="nonzero"/></clipPath><clipPath id="c6e5d8d202"><rect x="0" width="87" y="0" height="87"/></clipPath><clipPath id="5169056536"><path d="M 613.125 723.621094 L 699.375 723.621094 L 699.375 809.871094 L 613.125 809.871094 Z M 613.125 723.621094 " clip-rule="nonzero"/></clipPath><clipPath id="4e185f7b7e"><path d="M 696.167969 723.621094 L 782.550781 723.621094 L 782.550781 810 L 696.167969 810 Z M 696.167969 723.621094 " clip-rule="nonzero"/></clipPath><clipPath id="f9138707cc"><path d="M 0.167969 0.621094 L 86.550781 0.621094 L 86.550781 87 L 0.167969 87 Z M 0.167969 0.621094 " clip-rule="nonzero"/></clipPath><clipPath id="2628945cfd"><rect x="0" width="87" y="0" height="87"/></clipPath><clipPath id="e2b3022b75"><path d="M 696.167969 723.621094 L 782.417969 723.621094 L 782.417969 809.871094 L 696.167969 809.871094 Z M 696.167969 723.621094 " clip-rule="nonzero"/></clipPath><clipPath id="580a6092c2"><path d="M 778.125 723.621094 L 864.503906 723.621094 L 864.503906 810 L 778.125 810 Z M 778.125 723.621094 " clip-rule="nonzero"/></clipPath><clipPath id="2d47dfed96"><path d="M 0.125 0.621094 L 86.503906 0.621094 L 86.503906 87 L 0.125 87 Z M 0.125 0.621094 " clip-rule="nonzero"/></clipPath><clipPath id="e7aee96b2f"><rect x="0" width="87" y="0" height="87"/></clipPath><clipPath id="268972965d"><path d="M 778.125 723.621094 L 864.375 723.621094 L 864.375 809.871094 L 778.125 809.871094 Z M 778.125 723.621094 " clip-rule="nonzero"/></clipPath></defs><g clip-path="url(#43805aa233)"><path stroke-linecap="butt" transform="matrix(0.75, 0, 0, 0.75, 500.998973, 0.00002)" fill="none" stroke-linejoin="miter" d="M 0.00136931 -0.0000266667 L 607.464942 -0.0000266667 L 607.464942 178.015607 L 0.00136931 178.015607 Z M 0.00136931 -0.0000266667 " stroke="#000000" stroke-width="8" stroke-opacity="1" stroke-miterlimit="4"/></g><g fill="#000000" fill-opacity="1"><g transform="translate(650.992053, 85.500016)"><g><path d="M 17.296875 -39.765625 L 20.609375 -39.765625 L 37.125 0 L 32.984375 0 L 27.828125 -12.4375 L 9.96875 -12.4375 L 4.875 0 L 0.671875 0 Z M 26.9375 -15.515625 L 18.921875 -35.171875 L 10.8125 -15.515625 Z M 26.9375 -15.515625 "/></g></g></g><g fill="#000000" fill-opacity="1"><g transform="translate(688.002839, 85.500016)"><g><path d="M 15.90625 0.390625 C 13.925781 0.390625 12.09375 -0.0195312 10.40625 -0.84375 C 8.726562 -1.664062 7.28125 -2.773438 6.0625 -4.171875 C 4.851562 -5.566406 3.910156 -7.160156 3.234375 -8.953125 C 2.566406 -10.742188 2.234375 -12.59375 2.234375 -14.5 C 2.234375 -16.550781 2.5625 -18.484375 3.21875 -20.296875 C 3.875 -22.109375 4.804688 -23.722656 6.015625 -25.140625 C 7.234375 -26.554688 8.660156 -27.664062 10.296875 -28.46875 C 11.941406 -29.28125 13.773438 -29.6875 15.796875 -29.6875 C 18.296875 -29.6875 20.46875 -29.050781 22.3125 -27.78125 C 24.164062 -26.507812 25.722656 -24.941406 26.984375 -23.078125 L 26.984375 -29.171875 L 30.40625 -29.171875 L 30.40625 0.109375 C 30.40625 2.796875 29.757812 5.0625 28.46875 6.90625 C 27.1875 8.757812 25.453125 10.148438 23.265625 11.078125 C 21.078125 12.015625 18.695312 12.484375 16.125 12.484375 C 12.800781 12.484375 10.113281 11.882812 8.0625 10.6875 C 6.007812 9.5 4.332031 7.894531 3.03125 5.875 L 5.375 4.03125 C 6.53125 5.863281 8.066406 7.226562 9.984375 8.125 C 11.910156 9.019531 13.957031 9.46875 16.125 9.46875 C 18.03125 9.46875 19.773438 9.117188 21.359375 8.421875 C 22.953125 7.734375 24.222656 6.695312 25.171875 5.3125 C 26.117188 3.9375 26.59375 2.203125 26.59375 0.109375 L 26.59375 -5.65625 C 25.476562 -3.820312 23.945312 -2.351562 22 -1.25 C 20.0625 -0.15625 18.03125 0.390625 15.90625 0.390625 Z M 16.96875 -2.796875 C 18.125 -2.796875 19.234375 -3 20.296875 -3.40625 C 21.359375 -3.820312 22.335938 -4.375 23.234375 -5.0625 C 24.128906 -5.757812 24.875 -6.535156 25.46875 -7.390625 C 26.070312 -8.253906 26.445312 -9.132812 26.59375 -10.03125 L 26.59375 -19.046875 C 26.039062 -20.460938 25.238281 -21.71875 24.1875 -22.8125 C 23.144531 -23.914062 21.957031 -24.773438 20.625 -25.390625 C 19.300781 -26.003906 17.929688 -26.3125 16.515625 -26.3125 C 14.878906 -26.3125 13.414062 -25.96875 12.125 -25.28125 C 10.832031 -24.59375 9.75 -23.675781 8.875 -22.53125 C 8 -21.394531 7.316406 -20.117188 6.828125 -18.703125 C 6.347656 -17.285156 6.109375 -15.867188 6.109375 -14.453125 C 6.109375 -12.878906 6.382812 -11.390625 6.9375 -9.984375 C 7.5 -8.585938 8.273438 -7.335938 9.265625 -6.234375 C 10.253906 -5.140625 11.410156 -4.289062 12.734375 -3.6875 C 14.066406 -3.09375 15.476562 -2.796875 16.96875 -2.796875 Z M 16.96875 -2.796875 "/></g></g></g><g fill="#000000" fill-opacity="1"><g transform="translate(722.606006, 85.500016)"><g><path d="M 16.796875 0.5625 C 14.703125 0.5625 12.757812 0.160156 10.96875 -0.640625 C 9.175781 -1.441406 7.628906 -2.539062 6.328125 -3.9375 C 5.023438 -5.34375 4.007812 -6.957031 3.28125 -8.78125 C 2.550781 -10.613281 2.1875 -12.578125 2.1875 -14.671875 C 2.1875 -17.398438 2.8125 -19.898438 4.0625 -22.171875 C 5.3125 -24.453125 7.035156 -26.273438 9.234375 -27.640625 C 11.441406 -29.003906 13.945312 -29.6875 16.75 -29.6875 C 19.625 -29.6875 22.132812 -28.992188 24.28125 -27.609375 C 26.425781 -26.222656 28.113281 -24.398438 29.34375 -22.140625 C 30.570312 -19.890625 31.1875 -17.421875 31.1875 -14.734375 C 31.1875 -14.429688 31.1875 -14.140625 31.1875 -13.859375 C 31.1875 -13.578125 31.171875 -13.363281 31.140625 -13.21875 L 6.15625 -13.21875 C 6.34375 -11.125 6.929688 -9.265625 7.921875 -7.640625 C 8.910156 -6.015625 10.195312 -4.726562 11.78125 -3.78125 C 13.375 -2.832031 15.101562 -2.359375 16.96875 -2.359375 C 18.875 -2.359375 20.675781 -2.84375 22.375 -3.8125 C 24.070312 -4.78125 25.253906 -6.046875 25.921875 -7.609375 L 29.234375 -6.71875 C 28.640625 -5.332031 27.722656 -4.078125 26.484375 -2.953125 C 25.253906 -1.835938 23.804688 -0.972656 22.140625 -0.359375 C 20.484375 0.253906 18.703125 0.5625 16.796875 0.5625 Z M 6.046875 -15.953125 L 27.609375 -15.953125 C 27.460938 -18.085938 26.894531 -19.957031 25.90625 -21.5625 C 24.914062 -23.164062 23.625 -24.425781 22.03125 -25.34375 C 20.445312 -26.257812 18.703125 -26.71875 16.796875 -26.71875 C 14.890625 -26.71875 13.148438 -26.257812 11.578125 -25.34375 C 10.015625 -24.425781 8.738281 -23.15625 7.75 -21.53125 C 6.757812 -19.90625 6.191406 -18.046875 6.046875 -15.953125 Z M 6.046875 -15.953125 "/></g></g></g><g fill="#000000" fill-opacity="1"><g transform="translate(755.473413, 85.500016)"><g><path d="M 28.734375 0 L 24.921875 0 L 24.921875 -16.296875 C 24.921875 -19.734375 24.414062 -22.242188 23.40625 -23.828125 C 22.394531 -25.410156 20.804688 -26.203125 18.640625 -26.203125 C 17.148438 -26.203125 15.675781 -25.835938 14.21875 -25.109375 C 12.769531 -24.390625 11.492188 -23.398438 10.390625 -22.140625 C 9.285156 -20.890625 8.492188 -19.460938 8.015625 -17.859375 L 8.015625 0 L 4.203125 0 L 4.203125 -29.171875 L 7.671875 -29.171875 L 7.671875 -22.5625 C 8.453125 -23.988281 9.476562 -25.234375 10.75 -26.296875 C 12.019531 -27.359375 13.457031 -28.1875 15.0625 -28.78125 C 16.664062 -29.382812 18.328125 -29.6875 20.046875 -29.6875 C 21.648438 -29.6875 23.007812 -29.382812 24.125 -28.78125 C 25.25 -28.1875 26.144531 -27.335938 26.8125 -26.234375 C 27.488281 -25.128906 27.976562 -23.800781 28.28125 -22.25 C 28.582031 -20.707031 28.734375 -18.984375 28.734375 -17.078125 Z M 28.734375 0 "/></g></g></g><g fill="#000000" fill-opacity="1"><g transform="translate(787.83688, 85.500016)"><g><path d="M 18.203125 -1.40625 C 17.898438 -1.289062 17.429688 -1.082031 16.796875 -0.78125 C 16.160156 -0.488281 15.394531 -0.226562 14.5 0 C 13.601562 0.226562 12.632812 0.34375 11.59375 0.34375 C 10.507812 0.34375 9.488281 0.140625 8.53125 -0.265625 C 7.582031 -0.679688 6.828125 -1.3125 6.265625 -2.15625 C 5.710938 -3 5.4375 -4.035156 5.4375 -5.265625 L 5.4375 -26.15625 L 1.40625 -26.15625 L 1.40625 -29.171875 L 5.4375 -29.171875 L 5.4375 -39.03125 L 9.234375 -39.03125 L 9.234375 -29.171875 L 15.953125 -29.171875 L 15.953125 -26.15625 L 9.234375 -26.15625 L 9.234375 -6.328125 C 9.316406 -5.285156 9.703125 -4.5 10.390625 -3.96875 C 11.078125 -3.445312 11.867188 -3.1875 12.765625 -3.1875 C 13.816406 -3.1875 14.769531 -3.363281 15.625 -3.71875 C 16.476562 -4.070312 17 -4.328125 17.1875 -4.484375 Z M 18.203125 -1.40625 "/></g></g></g><g clip-path="url(#91e37972c4)"><path stroke-linecap="butt" transform="matrix(0.75, 0, 0, 0.75, 504.911165, 294.051334)" fill="none" stroke-linejoin="miter" d="M -0.00134476 -0.000737009 L 607.467436 -0.000737009 L 607.467436 178.014897 L -0.00134476 178.014897 Z M -0.00134476 -0.000737009 " stroke="#067529" stroke-width="32" stroke-opacity="1" stroke-miterlimit="4"/></g><g fill="#067529" fill-opacity="1"><g transform="translate(568.677687, 379.55133)"><g><path d="M 31.703125 -3.46875 L 31.703125 0 L 4.984375 0 L 4.984375 -39.765625 L 31.1875 -39.765625 L 31.1875 -36.28125 L 8.90625 -36.28125 L 8.90625 -21.953125 L 28.34375 -21.953125 L 28.34375 -18.640625 L 8.90625 -18.640625 L 8.90625 -3.46875 Z M 31.703125 -3.46875 "/></g></g></g><g fill="#067529" fill-opacity="1"><g transform="translate(602.496945, 379.55133)"><g><path d="M 28.734375 0 L 24.921875 0 L 24.921875 -16.296875 C 24.921875 -19.734375 24.414062 -22.242188 23.40625 -23.828125 C 22.394531 -25.410156 20.804688 -26.203125 18.640625 -26.203125 C 17.148438 -26.203125 15.675781 -25.835938 14.21875 -25.109375 C 12.769531 -24.390625 11.492188 -23.398438 10.390625 -22.140625 C 9.285156 -20.890625 8.492188 -19.460938 8.015625 -17.859375 L 8.015625 0 L 4.203125 0 L 4.203125 -29.171875 L 7.671875 -29.171875 L 7.671875 -22.5625 C 8.453125 -23.988281 9.476562 -25.234375 10.75 -26.296875 C 12.019531 -27.359375 13.457031 -28.1875 15.0625 -28.78125 C 16.664062 -29.382812 18.328125 -29.6875 20.046875 -29.6875 C 21.648438 -29.6875 23.007812 -29.382812 24.125 -28.78125 C 25.25 -28.1875 26.144531 -27.335938 26.8125 -26.234375 C 27.488281 -25.128906 27.976562 -23.800781 28.28125 -22.25 C 28.582031 -20.707031 28.734375 -18.984375 28.734375 -17.078125 Z M 28.734375 0 "/></g></g></g><g fill="#067529" fill-opacity="1"><g transform="translate(634.524448, 379.55133)"><g><path d="M 12.875 0 L 1.0625 -29.171875 L 5.046875 -29.171875 L 15.015625 -3.8125 L 25.03125 -29.171875 L 28.78125 -29.171875 L 16.96875 0 Z M 12.875 0 "/></g></g></g><g fill="#067529" fill-opacity="1"><g transform="translate(664.36828, 379.55133)"><g><path d="M 4.203125 0 L 4.203125 -29.171875 L 8.015625 -29.171875 L 8.015625 0 Z M 4.203125 -35.28125 L 4.203125 -40.875 L 8.015625 -40.875 L 8.015625 -35.28125 Z M 4.203125 -35.28125 "/></g></g></g><g fill="#067529" fill-opacity="1"><g transform="translate(676.574571, 379.55133)"><g><path d="M 18.765625 -25.8125 C 16.222656 -25.738281 13.988281 -25.03125 12.0625 -23.6875 C 10.144531 -22.34375 8.796875 -20.492188 8.015625 -18.140625 L 8.015625 0 L 4.203125 0 L 4.203125 -29.171875 L 7.78125 -29.171875 L 7.78125 -22.171875 C 8.789062 -24.222656 10.125 -25.882812 11.78125 -27.15625 C 13.445312 -28.425781 15.210938 -29.132812 17.078125 -29.28125 C 17.453125 -29.320312 17.78125 -29.34375 18.0625 -29.34375 C 18.34375 -29.34375 18.578125 -29.320312 18.765625 -29.28125 Z M 18.765625 -25.8125 "/></g></g></g><g fill="#067529" fill-opacity="1"><g transform="translate(695.331906, 379.55133)"><g><path d="M 16.625 0.5625 C 14.539062 0.5625 12.609375 0.160156 10.828125 -0.640625 C 9.054688 -1.441406 7.523438 -2.539062 6.234375 -3.9375 C 4.953125 -5.34375 3.957031 -6.953125 3.25 -8.765625 C 2.539062 -10.578125 2.1875 -12.488281 2.1875 -14.5 C 2.1875 -16.59375 2.539062 -18.546875 3.25 -20.359375 C 3.957031 -22.171875 4.960938 -23.773438 6.265625 -25.171875 C 7.578125 -26.566406 9.117188 -27.664062 10.890625 -28.46875 C 12.660156 -29.28125 14.59375 -29.6875 16.6875 -29.6875 C 18.78125 -29.6875 20.703125 -29.28125 22.453125 -28.46875 C 24.210938 -27.664062 25.742188 -26.566406 27.046875 -25.171875 C 28.359375 -23.773438 29.367188 -22.171875 30.078125 -20.359375 C 30.785156 -18.546875 31.140625 -16.59375 31.140625 -14.5 C 31.140625 -12.488281 30.785156 -10.578125 30.078125 -8.765625 C 29.367188 -6.953125 28.367188 -5.34375 27.078125 -3.9375 C 25.785156 -2.539062 24.253906 -1.441406 22.484375 -0.640625 C 20.710938 0.160156 18.757812 0.5625 16.625 0.5625 Z M 6.046875 -14.453125 C 6.046875 -12.285156 6.519531 -10.3125 7.46875 -8.53125 C 8.425781 -6.757812 9.707031 -5.359375 11.3125 -4.328125 C 12.914062 -3.304688 14.6875 -2.796875 16.625 -2.796875 C 18.570312 -2.796875 20.347656 -3.316406 21.953125 -4.359375 C 23.554688 -5.410156 24.84375 -6.84375 25.8125 -8.65625 C 26.78125 -10.46875 27.265625 -12.4375 27.265625 -14.5625 C 27.265625 -16.726562 26.78125 -18.707031 25.8125 -20.5 C 24.84375 -22.289062 23.554688 -23.707031 21.953125 -24.75 C 20.347656 -25.789062 18.570312 -26.3125 16.625 -26.3125 C 14.6875 -26.3125 12.921875 -25.769531 11.328125 -24.6875 C 9.742188 -23.613281 8.46875 -22.1875 7.5 -20.40625 C 6.53125 -18.632812 6.046875 -16.648438 6.046875 -14.453125 Z M 6.046875 -14.453125 "/></g></g></g><g fill="#067529" fill-opacity="1"><g transform="translate(728.647257, 379.55133)"><g><path d="M 28.734375 0 L 24.921875 0 L 24.921875 -16.296875 C 24.921875 -19.734375 24.414062 -22.242188 23.40625 -23.828125 C 22.394531 -25.410156 20.804688 -26.203125 18.640625 -26.203125 C 17.148438 -26.203125 15.675781 -25.835938 14.21875 -25.109375 C 12.769531 -24.390625 11.492188 -23.398438 10.390625 -22.140625 C 9.285156 -20.890625 8.492188 -19.460938 8.015625 -17.859375 L 8.015625 0 L 4.203125 0 L 4.203125 -29.171875 L 7.671875 -29.171875 L 7.671875 -22.5625 C 8.453125 -23.988281 9.476562 -25.234375 10.75 -26.296875 C 12.019531 -27.359375 13.457031 -28.1875 15.0625 -28.78125 C 16.664062 -29.382812 18.328125 -29.6875 20.046875 -29.6875 C 21.648438 -29.6875 23.007812 -29.382812 24.125 -28.78125 C 25.25 -28.1875 26.144531 -27.335938 26.8125 -26.234375 C 27.488281 -25.128906 27.976562 -23.800781 28.28125 -22.25 C 28.582031 -20.707031 28.734375 -18.984375 28.734375 -17.078125 Z M 28.734375 0 "/></g></g></g><g fill="#067529" fill-opacity="1"><g transform="translate(761.290715, 379.55133)"><g><path d="M 47.59375 0 L 43.796875 0 L 43.796875 -16.296875 C 43.796875 -19.691406 43.253906 -22.191406 42.171875 -23.796875 C 41.085938 -25.398438 39.484375 -26.203125 37.359375 -26.203125 C 35.148438 -26.203125 33.175781 -25.414062 31.4375 -23.84375 C 29.707031 -22.28125 28.488281 -20.269531 27.78125 -17.8125 L 27.78125 0 L 23.96875 0 L 23.96875 -16.296875 C 23.96875 -19.734375 23.441406 -22.242188 22.390625 -23.828125 C 21.347656 -25.410156 19.742188 -26.203125 17.578125 -26.203125 C 15.421875 -26.203125 13.460938 -25.4375 11.703125 -23.90625 C 9.953125 -22.375 8.722656 -20.359375 8.015625 -17.859375 L 8.015625 0 L 4.203125 0 L 4.203125 -29.171875 L 7.671875 -29.171875 L 7.671875 -22.5625 C 8.898438 -24.84375 10.472656 -26.597656 12.390625 -27.828125 C 14.316406 -29.066406 16.457031 -29.6875 18.8125 -29.6875 C 21.238281 -29.6875 23.195312 -28.992188 24.6875 -27.609375 C 26.1875 -26.222656 27.101562 -24.410156 27.4375 -22.171875 C 28.78125 -24.640625 30.394531 -26.507812 32.28125 -27.78125 C 34.164062 -29.050781 36.304688 -29.6875 38.703125 -29.6875 C 40.335938 -29.6875 41.722656 -29.382812 42.859375 -28.78125 C 44.003906 -28.1875 44.921875 -27.335938 45.609375 -26.234375 C 46.296875 -25.128906 46.796875 -23.800781 47.109375 -22.25 C 47.429688 -20.707031 47.59375 -18.984375 47.59375 -17.078125 Z M 47.59375 0 "/></g></g></g><g fill="#067529" fill-opacity="1"><g transform="translate(812.747515, 379.55133)"><g><path d="M 16.796875 0.5625 C 14.703125 0.5625 12.757812 0.160156 10.96875 -0.640625 C 9.175781 -1.441406 7.628906 -2.539062 6.328125 -3.9375 C 5.023438 -5.34375 4.007812 -6.957031 3.28125 -8.78125 C 2.550781 -10.613281 2.1875 -12.578125 2.1875 -14.671875 C 2.1875 -17.398438 2.8125 -19.898438 4.0625 -22.171875 C 5.3125 -24.453125 7.035156 -26.273438 9.234375 -27.640625 C 11.441406 -29.003906 13.945312 -29.6875 16.75 -29.6875 C 19.625 -29.6875 22.132812 -28.992188 24.28125 -27.609375 C 26.425781 -26.222656 28.113281 -24.398438 29.34375 -22.140625 C 30.570312 -19.890625 31.1875 -17.421875 31.1875 -14.734375 C 31.1875 -14.429688 31.1875 -14.140625 31.1875 -13.859375 C 31.1875 -13.578125 31.171875 -13.363281 31.140625 -13.21875 L 6.15625 -13.21875 C 6.34375 -11.125 6.929688 -9.265625 7.921875 -7.640625 C 8.910156 -6.015625 10.195312 -4.726562 11.78125 -3.78125 C 13.375 -2.832031 15.101562 -2.359375 16.96875 -2.359375 C 18.875 -2.359375 20.675781 -2.84375 22.375 -3.8125 C 24.070312 -4.78125 25.253906 -6.046875 25.921875 -7.609375 L 29.234375 -6.71875 C 28.640625 -5.332031 27.722656 -4.078125 26.484375 -2.953125 C 25.253906 -1.835938 23.804688 -0.972656 22.140625 -0.359375 C 20.484375 0.253906 18.703125 0.5625 16.796875 0.5625 Z M 6.046875 -15.953125 L 27.609375 -15.953125 C 27.460938 -18.085938 26.894531 -19.957031 25.90625 -21.5625 C 24.914062 -23.164062 23.625 -24.425781 22.03125 -25.34375 C 20.445312 -26.257812 18.703125 -26.71875 16.796875 -26.71875 C 14.890625 -26.71875 13.148438 -26.257812 11.578125 -25.34375 C 10.015625 -24.425781 8.738281 -23.15625 7.75 -21.53125 C 6.757812 -19.90625 6.191406 -18.046875 6.046875 -15.953125 Z M 6.046875 -15.953125 "/></g></g></g><g fill="#067529" fill-opacity="1"><g transform="translate(845.614922, 379.55133)"><g><path d="M 28.734375 0 L 24.921875 0 L 24.921875 -16.296875 C 24.921875 -19.734375 24.414062 -22.242188 23.40625 -23.828125 C 22.394531 -25.410156 20.804688 -26.203125 18.640625 -26.203125 C 17.148438 -26.203125 15.675781 -25.835938 14.21875 -25.109375 C 12.769531 -24.390625 11.492188 -23.398438 10.390625 -22.140625 C 9.285156 -20.890625 8.492188 -19.460938 8.015625 -17.859375 L 8.015625 0 L 4.203125 0 L 4.203125 -29.171875 L 7.671875 -29.171875 L 7.671875 -22.5625 C 8.453125 -23.988281 9.476562 -25.234375 10.75 -26.296875 C 12.019531 -27.359375 13.457031 -28.1875 15.0625 -28.78125 C 16.664062 -29.382812 18.328125 -29.6875 20.046875 -29.6875 C 21.648438 -29.6875 23.007812 -29.382812 24.125 -28.78125 C 25.25 -28.1875 26.144531 -27.335938 26.8125 -26.234375 C 27.488281 -25.128906 27.976562 -23.800781 28.28125 -22.25 C 28.582031 -20.707031 28.734375 -18.984375 28.734375 -17.078125 Z M 28.734375 0 "/></g></g></g><g fill="#067529" fill-opacity="1"><g transform="translate(877.978377, 379.55133)"><g><path d="M 18.203125 -1.40625 C 17.898438 -1.289062 17.429688 -1.082031 16.796875 -0.78125 C 16.160156 -0.488281 15.394531 -0.226562 14.5 0 C 13.601562 0.226562 12.632812 0.34375 11.59375 0.34375 C 10.507812 0.34375 9.488281 0.140625 8.53125 -0.265625 C 7.582031 -0.679688 6.828125 -1.3125 6.265625 -2.15625 C 5.710938 -3 5.4375 -4.035156 5.4375 -5.265625 L 5.4375 -26.15625 L 1.40625 -26.15625 L 1.40625 -29.171875 L 5.4375 -29.171875 L 5.4375 -39.03125 L 9.234375 -39.03125 L 9.234375 -29.171875 L 15.953125 -29.171875 L 15.953125 -26.15625 L 9.234375 -26.15625 L 9.234375 -6.328125 C 9.316406 -5.285156 9.703125 -4.5 10.390625 -3.96875 C 11.078125 -3.445312 11.867188 -3.1875 12.765625 -3.1875 C 13.816406 -3.1875 14.769531 -3.363281 15.625 -3.71875 C 16.476562 -4.070312 17 -4.328125 17.1875 -4.484375 Z M 18.203125 -1.40625 "/></g></g></g><path stroke-linecap="butt" transform="matrix(0.75, 0, 0, 0.75, 956.614518, 65.634158)" fill="none" stroke-linejoin="miter" d="M -0.00164913 1.498206 L 152.467109 1.498206 C 161.857734 1.498206 169.467109 9.112789 169.467109 18.498207 L 169.467109 398.565934 C 169.467109 407.956559 161.857734 415.565935 152.467109 415.565935 L 13.467102 415.565935 " stroke="#000000" stroke-width="3" stroke-opacity="1" stroke-miterlimit="4"/><path stroke-linecap="round" transform="matrix(0.75, 0, 0, 0.75, 956.614518, 65.634158)" fill-opacity="1" fill="#000000" fill-rule="nonzero" stroke-linejoin="round" d="M 12.717102 420.065935 L 6.717101 415.565935 L 12.717102 411.065935 Z M 12.717102 420.065935 " stroke="#000000" stroke-width="3" stroke-opacity="1" stroke-miterlimit="4"/><g fill="#000000" fill-opacity="1"><g transform="translate(1119.369792, 241.62446)"><g><path d="M 12.984375 -29.8125 L 15.453125 -29.8125 L 27.84375 0 L 24.734375 0 L 20.875 -9.328125 L 7.46875 -9.328125 L 3.65625 0 L 0.5 0 Z M 20.203125 -11.640625 L 14.203125 -26.375 L 8.109375 -11.640625 Z M 20.203125 -11.640625 "/></g></g></g><g fill="#000000" fill-opacity="1"><g transform="translate(1147.131795, 241.62446)"><g><path d="M 12.640625 0.421875 C 11.046875 0.421875 9.582031 0.117188 8.25 -0.484375 C 6.925781 -1.085938 5.765625 -1.921875 4.765625 -2.984375 C 3.773438 -4.046875 3.003906 -5.257812 2.453125 -6.625 C 1.910156 -8 1.640625 -9.457031 1.640625 -11 C 1.640625 -13.070312 2.097656 -14.960938 3.015625 -16.671875 C 3.941406 -18.378906 5.226562 -19.738281 6.875 -20.75 C 8.53125 -21.757812 10.4375 -22.265625 12.59375 -22.265625 C 14.644531 -22.265625 16.453125 -21.796875 18.015625 -20.859375 C 19.585938 -19.921875 20.75 -18.648438 21.5 -17.046875 L 18.734375 -16.171875 C 18.117188 -17.285156 17.253906 -18.15625 16.140625 -18.78125 C 15.035156 -19.414062 13.8125 -19.734375 12.46875 -19.734375 C 11.019531 -19.734375 9.691406 -19.351562 8.484375 -18.59375 C 7.273438 -17.84375 6.3125 -16.8125 5.59375 -15.5 C 4.882812 -14.1875 4.53125 -12.6875 4.53125 -11 C 4.53125 -9.351562 4.894531 -7.859375 5.625 -6.515625 C 6.351562 -5.171875 7.316406 -4.097656 8.515625 -3.296875 C 9.722656 -2.492188 11.054688 -2.09375 12.515625 -2.09375 C 13.460938 -2.09375 14.378906 -2.257812 15.265625 -2.59375 C 16.148438 -2.9375 16.921875 -3.394531 17.578125 -3.96875 C 18.234375 -4.539062 18.675781 -5.164062 18.90625 -5.84375 L 21.71875 -5 C 21.320312 -3.957031 20.664062 -3.023438 19.75 -2.203125 C 18.84375 -1.378906 17.78125 -0.734375 16.5625 -0.265625 C 15.34375 0.191406 14.035156 0.421875 12.640625 0.421875 Z M 12.640625 0.421875 "/></g></g></g><g fill="#000000" fill-opacity="1"><g transform="translate(1170.189796, 241.62446)"><g><path d="M 13.65625 -1.046875 C 13.425781 -0.960938 13.070312 -0.804688 12.59375 -0.578125 C 12.125 -0.359375 11.550781 -0.164062 10.875 0 C 10.207031 0.164062 9.476562 0.25 8.6875 0.25 C 7.875 0.25 7.109375 0.0976562 6.390625 -0.203125 C 5.679688 -0.515625 5.117188 -0.984375 4.703125 -1.609375 C 4.285156 -2.242188 4.078125 -3.023438 4.078125 -3.953125 L 4.078125 -19.609375 L 1.046875 -19.609375 L 1.046875 -21.875 L 4.078125 -21.875 L 4.078125 -29.28125 L 6.9375 -29.28125 L 6.9375 -21.875 L 11.96875 -21.875 L 11.96875 -19.609375 L 6.9375 -19.609375 L 6.9375 -4.75 C 6.988281 -3.957031 7.269531 -3.363281 7.78125 -2.96875 C 8.300781 -2.582031 8.898438 -2.390625 9.578125 -2.390625 C 10.359375 -2.390625 11.070312 -2.519531 11.71875 -2.78125 C 12.363281 -3.050781 12.753906 -3.242188 12.890625 -3.359375 Z M 13.65625 -1.046875 "/></g></g></g><g fill="#000000" fill-opacity="1"><g transform="translate(1184.259792, 241.62446)"><g><path d="M 3.15625 0 L 3.15625 -21.875 L 6 -21.875 L 6 0 Z M 3.15625 -26.453125 L 3.15625 -30.65625 L 6 -30.65625 L 6 -26.453125 Z M 3.15625 -26.453125 "/></g></g></g><g fill="#000000" fill-opacity="1"><g transform="translate(1193.415786, 241.62446)"><g><path d="M 12.46875 0.421875 C 10.90625 0.421875 9.457031 0.117188 8.125 -0.484375 C 6.789062 -1.085938 5.640625 -1.910156 4.671875 -2.953125 C 3.710938 -4.003906 2.96875 -5.207031 2.4375 -6.5625 C 1.90625 -7.925781 1.640625 -9.363281 1.640625 -10.875 C 1.640625 -12.445312 1.90625 -13.910156 2.4375 -15.265625 C 2.96875 -16.617188 3.722656 -17.820312 4.703125 -18.875 C 5.679688 -19.925781 6.832031 -20.753906 8.15625 -21.359375 C 9.488281 -21.960938 10.941406 -22.265625 12.515625 -22.265625 C 14.085938 -22.265625 15.53125 -21.960938 16.84375 -21.359375 C 18.15625 -20.753906 19.300781 -19.925781 20.28125 -18.875 C 21.257812 -17.820312 22.015625 -16.617188 22.546875 -15.265625 C 23.085938 -13.910156 23.359375 -12.445312 23.359375 -10.875 C 23.359375 -9.363281 23.085938 -7.925781 22.546875 -6.5625 C 22.015625 -5.207031 21.265625 -4.003906 20.296875 -2.953125 C 19.335938 -1.910156 18.191406 -1.085938 16.859375 -0.484375 C 15.535156 0.117188 14.070312 0.421875 12.46875 0.421875 Z M 4.53125 -10.84375 C 4.53125 -9.21875 4.882812 -7.738281 5.59375 -6.40625 C 6.3125 -5.070312 7.273438 -4.019531 8.484375 -3.25 C 9.691406 -2.476562 11.019531 -2.09375 12.46875 -2.09375 C 13.925781 -2.09375 15.253906 -2.484375 16.453125 -3.265625 C 17.660156 -4.054688 18.628906 -5.128906 19.359375 -6.484375 C 20.085938 -7.847656 20.453125 -9.328125 20.453125 -10.921875 C 20.453125 -12.546875 20.085938 -14.03125 19.359375 -15.375 C 18.628906 -16.71875 17.660156 -17.78125 16.453125 -18.5625 C 15.253906 -19.34375 13.925781 -19.734375 12.46875 -19.734375 C 11.019531 -19.734375 9.695312 -19.328125 8.5 -18.515625 C 7.3125 -17.703125 6.351562 -16.628906 5.625 -15.296875 C 4.894531 -13.972656 4.53125 -12.488281 4.53125 -10.84375 Z M 4.53125 -10.84375 "/></g></g></g><g fill="#000000" fill-opacity="1"><g transform="translate(1218.405779, 241.62446)"><g><path d="M 21.546875 0 L 18.6875 0 L 18.6875 -12.21875 C 18.6875 -14.800781 18.304688 -16.6875 17.546875 -17.875 C 16.796875 -19.0625 15.609375 -19.65625 13.984375 -19.65625 C 12.867188 -19.65625 11.765625 -19.378906 10.671875 -18.828125 C 9.578125 -18.285156 8.613281 -17.546875 7.78125 -16.609375 C 6.957031 -15.671875 6.363281 -14.597656 6 -13.390625 L 6 0 L 3.15625 0 L 3.15625 -21.875 L 5.75 -21.875 L 5.75 -16.921875 C 6.34375 -17.984375 7.113281 -18.914062 8.0625 -19.71875 C 9.007812 -20.519531 10.085938 -21.144531 11.296875 -21.59375 C 12.503906 -22.039062 13.75 -22.265625 15.03125 -22.265625 C 16.238281 -22.265625 17.257812 -22.039062 18.09375 -21.59375 C 18.9375 -21.144531 19.609375 -20.503906 20.109375 -19.671875 C 20.617188 -18.847656 20.984375 -17.851562 21.203125 -16.6875 C 21.429688 -15.53125 21.546875 -14.238281 21.546875 -12.8125 Z M 21.546875 0 "/></g></g></g><path stroke-linecap="butt" transform="matrix(0.75, 0, 0, 0.75, 338.861152, 65.634158)" fill="none" stroke-linejoin="miter" d="M 221.388267 393.565934 L 18.497632 393.565934 C 9.112215 393.565934 1.497631 385.956558 1.497631 376.565933 L 1.497631 18.498207 C 1.497631 9.112789 9.112215 1.498206 18.497632 1.498206 L 207.924725 1.498206 " stroke="#000000" stroke-width="3" stroke-opacity="1" stroke-miterlimit="4"/><path stroke-linecap="round" transform="matrix(0.75, 0, 0, 0.75, 338.861152, 65.634158)" fill-opacity="1" fill="#000000" fill-rule="nonzero" stroke-linejoin="round" d="M 208.674725 -3.001795 L 214.674725 1.498206 L 208.674725 5.998206 Z M 208.674725 -3.001795 " stroke="#000000" stroke-width="3" stroke-opacity="1" stroke-miterlimit="4"/><g fill="#000000" fill-opacity="1"><g transform="translate(203.627076, 241.62446)"><g><path d="M 21.171875 -24.234375 C 20.742188 -24.710938 20.25 -25.140625 19.6875 -25.515625 C 19.132812 -25.890625 18.507812 -26.21875 17.8125 -26.5 C 17.113281 -26.78125 16.363281 -27.003906 15.5625 -27.171875 C 14.757812 -27.335938 13.910156 -27.421875 13.015625 -27.421875 C 10.410156 -27.421875 8.5 -26.921875 7.28125 -25.921875 C 6.0625 -24.929688 5.453125 -23.582031 5.453125 -21.875 C 5.453125 -20.707031 5.738281 -19.785156 6.3125 -19.109375 C 6.894531 -18.441406 7.800781 -17.894531 9.03125 -17.46875 C 10.257812 -17.050781 11.828125 -16.617188 13.734375 -16.171875 C 15.859375 -15.722656 17.691406 -15.191406 19.234375 -14.578125 C 20.773438 -13.960938 21.960938 -13.128906 22.796875 -12.078125 C 23.640625 -11.023438 24.0625 -9.601562 24.0625 -7.8125 C 24.0625 -6.4375 23.796875 -5.242188 23.265625 -4.234375 C 22.734375 -3.234375 21.988281 -2.394531 21.03125 -1.71875 C 20.082031 -1.050781 18.953125 -0.554688 17.640625 -0.234375 C 16.328125 0.0859375 14.882812 0.25 13.3125 0.25 C 11.769531 0.25 10.289062 0.0859375 8.875 -0.234375 C 7.46875 -0.554688 6.132812 -1.03125 4.875 -1.65625 C 3.613281 -2.289062 2.4375 -3.097656 1.34375 -4.078125 L 2.8125 -6.46875 C 3.34375 -5.90625 3.976562 -5.378906 4.71875 -4.890625 C 5.46875 -4.398438 6.296875 -3.957031 7.203125 -3.5625 C 8.109375 -3.175781 9.085938 -2.878906 10.140625 -2.671875 C 11.191406 -2.460938 12.273438 -2.359375 13.390625 -2.359375 C 15.773438 -2.359375 17.628906 -2.789062 18.953125 -3.65625 C 20.285156 -4.519531 20.953125 -5.804688 20.953125 -7.515625 C 20.953125 -8.742188 20.613281 -9.726562 19.9375 -10.46875 C 19.269531 -11.21875 18.265625 -11.828125 16.921875 -12.296875 C 15.578125 -12.773438 13.925781 -13.238281 11.96875 -13.6875 C 9.894531 -14.164062 8.144531 -14.695312 6.71875 -15.28125 C 5.289062 -15.875 4.21875 -16.648438 3.5 -17.609375 C 2.789062 -18.578125 2.4375 -19.863281 2.4375 -21.46875 C 2.4375 -23.3125 2.890625 -24.867188 3.796875 -26.140625 C 4.710938 -27.421875 5.96875 -28.390625 7.5625 -29.046875 C 9.15625 -29.703125 10.988281 -30.03125 13.0625 -30.03125 C 14.375 -30.03125 15.597656 -29.894531 16.734375 -29.625 C 17.867188 -29.363281 18.921875 -28.976562 19.890625 -28.46875 C 20.859375 -27.96875 21.757812 -27.34375 22.59375 -26.59375 Z M 21.171875 -24.234375 "/></g></g></g><g fill="#000000" fill-opacity="1"><g transform="translate(228.743068, 241.62446)"><g><path d="M 13.65625 -1.046875 C 13.425781 -0.960938 13.070312 -0.804688 12.59375 -0.578125 C 12.125 -0.359375 11.550781 -0.164062 10.875 0 C 10.207031 0.164062 9.476562 0.25 8.6875 0.25 C 7.875 0.25 7.109375 0.0976562 6.390625 -0.203125 C 5.679688 -0.515625 5.117188 -0.984375 4.703125 -1.609375 C 4.285156 -2.242188 4.078125 -3.023438 4.078125 -3.953125 L 4.078125 -19.609375 L 1.046875 -19.609375 L 1.046875 -21.875 L 4.078125 -21.875 L 4.078125 -29.28125 L 6.9375 -29.28125 L 6.9375 -21.875 L 11.96875 -21.875 L 11.96875 -19.609375 L 6.9375 -19.609375 L 6.9375 -4.75 C 6.988281 -3.957031 7.269531 -3.363281 7.78125 -2.96875 C 8.300781 -2.582031 8.898438 -2.390625 9.578125 -2.390625 C 10.359375 -2.390625 11.070312 -2.519531 11.71875 -2.78125 C 12.363281 -3.050781 12.753906 -3.242188 12.890625 -3.359375 Z M 13.65625 -1.046875 "/></g></g></g><g fill="#000000" fill-opacity="1"><g transform="translate(242.813064, 241.62446)"><g><path d="M 1.390625 -6.296875 C 1.390625 -7.671875 1.78125 -8.851562 2.5625 -9.84375 C 3.34375 -10.84375 4.425781 -11.613281 5.8125 -12.15625 C 7.195312 -12.707031 8.800781 -12.984375 10.625 -12.984375 C 11.6875 -12.984375 12.789062 -12.894531 13.9375 -12.71875 C 15.09375 -12.550781 16.117188 -12.300781 17.015625 -11.96875 L 17.015625 -13.8125 C 17.015625 -15.664062 16.46875 -17.132812 15.375 -18.21875 C 14.28125 -19.3125 12.769531 -19.859375 10.84375 -19.859375 C 9.664062 -19.859375 8.507812 -19.640625 7.375 -19.203125 C 6.238281 -18.773438 5.054688 -18.140625 3.828125 -17.296875 L 2.734375 -19.3125 C 4.160156 -20.300781 5.554688 -21.039062 6.921875 -21.53125 C 8.296875 -22.019531 9.695312 -22.265625 11.125 -22.265625 C 13.8125 -22.265625 15.9375 -21.492188 17.5 -19.953125 C 19.070312 -18.410156 19.859375 -16.28125 19.859375 -13.5625 L 19.859375 -3.4375 C 19.859375 -3.050781 19.941406 -2.765625 20.109375 -2.578125 C 20.285156 -2.398438 20.554688 -2.296875 20.921875 -2.265625 L 20.921875 0 C 20.609375 0.03125 20.335938 0.0546875 20.109375 0.078125 C 19.890625 0.109375 19.722656 0.109375 19.609375 0.078125 C 18.910156 0.0546875 18.378906 -0.160156 18.015625 -0.578125 C 17.648438 -1.003906 17.457031 -1.457031 17.4375 -1.9375 L 17.390625 -3.53125 C 16.410156 -2.269531 15.132812 -1.296875 13.5625 -0.609375 C 12 0.078125 10.40625 0.421875 8.78125 0.421875 C 7.375 0.421875 6.101562 0.117188 4.96875 -0.484375 C 3.84375 -1.085938 2.960938 -1.898438 2.328125 -2.921875 C 1.703125 -3.941406 1.390625 -5.066406 1.390625 -6.296875 Z M 16.046875 -4.625 C 16.347656 -5.007812 16.582031 -5.382812 16.75 -5.75 C 16.925781 -6.113281 17.015625 -6.4375 17.015625 -6.71875 L 17.015625 -9.90625 C 16.054688 -10.269531 15.066406 -10.550781 14.046875 -10.75 C 13.023438 -10.945312 12 -11.046875 10.96875 -11.046875 C 8.914062 -11.046875 7.257812 -10.640625 6 -9.828125 C 4.738281 -9.015625 4.109375 -7.910156 4.109375 -6.515625 C 4.109375 -5.703125 4.316406 -4.9375 4.734375 -4.21875 C 5.160156 -3.507812 5.78125 -2.921875 6.59375 -2.453125 C 7.40625 -1.992188 8.359375 -1.765625 9.453125 -1.765625 C 10.828125 -1.765625 12.109375 -2.03125 13.296875 -2.5625 C 14.484375 -3.09375 15.398438 -3.78125 16.046875 -4.625 Z M 16.046875 -4.625 "/></g></g></g><g fill="#000000" fill-opacity="1"><g transform="translate(265.535066, 241.62446)"><g><path d="M 13.65625 -1.046875 C 13.425781 -0.960938 13.070312 -0.804688 12.59375 -0.578125 C 12.125 -0.359375 11.550781 -0.164062 10.875 0 C 10.207031 0.164062 9.476562 0.25 8.6875 0.25 C 7.875 0.25 7.109375 0.0976562 6.390625 -0.203125 C 5.679688 -0.515625 5.117188 -0.984375 4.703125 -1.609375 C 4.285156 -2.242188 4.078125 -3.023438 4.078125 -3.953125 L 4.078125 -19.609375 L 1.046875 -19.609375 L 1.046875 -21.875 L 4.078125 -21.875 L 4.078125 -29.28125 L 6.9375 -29.28125 L 6.9375 -21.875 L 11.96875 -21.875 L 11.96875 -19.609375 L 6.9375 -19.609375 L 6.9375 -4.75 C 6.988281 -3.957031 7.269531 -3.363281 7.78125 -2.96875 C 8.300781 -2.582031 8.898438 -2.390625 9.578125 -2.390625 C 10.359375 -2.390625 11.070312 -2.519531 11.71875 -2.78125 C 12.363281 -3.050781 12.753906 -3.242188 12.890625 -3.359375 Z M 13.65625 -1.046875 "/></g></g></g><g fill="#000000" fill-opacity="1"><g transform="translate(279.227063, 241.62446)"><g><path d="M 12.59375 0.421875 C 11.03125 0.421875 9.578125 0.117188 8.234375 -0.484375 C 6.890625 -1.085938 5.726562 -1.910156 4.75 -2.953125 C 3.769531 -4.003906 3.003906 -5.21875 2.453125 -6.59375 C 1.910156 -7.96875 1.640625 -9.4375 1.640625 -11 C 1.640625 -13.039062 2.109375 -14.914062 3.046875 -16.625 C 3.984375 -18.332031 5.273438 -19.695312 6.921875 -20.71875 C 8.578125 -21.75 10.457031 -22.265625 12.5625 -22.265625 C 14.71875 -22.265625 16.597656 -21.742188 18.203125 -20.703125 C 19.816406 -19.671875 21.082031 -18.304688 22 -16.609375 C 22.925781 -14.910156 23.390625 -13.054688 23.390625 -11.046875 C 23.390625 -10.816406 23.390625 -10.597656 23.390625 -10.390625 C 23.390625 -10.179688 23.378906 -10.019531 23.359375 -9.90625 L 4.625 -9.90625 C 4.757812 -8.34375 5.195312 -6.953125 5.9375 -5.734375 C 6.6875 -4.515625 7.65625 -3.546875 8.84375 -2.828125 C 10.03125 -2.117188 11.320312 -1.765625 12.71875 -1.765625 C 14.15625 -1.765625 15.507812 -2.128906 16.78125 -2.859375 C 18.050781 -3.585938 18.941406 -4.539062 19.453125 -5.71875 L 21.921875 -5.046875 C 21.472656 -4.003906 20.785156 -3.0625 19.859375 -2.21875 C 18.941406 -1.382812 17.859375 -0.734375 16.609375 -0.265625 C 15.359375 0.191406 14.019531 0.421875 12.59375 0.421875 Z M 4.53125 -11.96875 L 20.703125 -11.96875 C 20.585938 -13.5625 20.160156 -14.957031 19.421875 -16.15625 C 18.679688 -17.363281 17.710938 -18.3125 16.515625 -19 C 15.328125 -19.6875 14.019531 -20.03125 12.59375 -20.03125 C 11.164062 -20.03125 9.863281 -19.6875 8.6875 -19 C 7.519531 -18.3125 6.5625 -17.359375 5.8125 -16.140625 C 5.070312 -14.929688 4.644531 -13.539062 4.53125 -11.96875 Z M 4.53125 -11.96875 "/></g></g></g><path stroke-linecap="butt" transform="matrix(0.75, 0, 0, 0.75, 400.152173, 95.763766)" fill="none" stroke-linejoin="miter" d="M 126.203359 1.502478 L 18.500228 1.502478 C 9.109603 1.502478 1.500227 9.111854 1.500227 18.502479 L 1.500227 296.221243 C 1.500227 305.611869 9.109603 313.221244 18.500228 313.221244 L 139.666901 313.221244 " stroke="#000000" stroke-width="3" stroke-opacity="1" stroke-miterlimit="4"/><path stroke-linecap="round" transform="matrix(0.75, 0, 0, 0.75, 400.152173, 95.763766)" fill-opacity="1" fill="#000000" fill-rule="nonzero" stroke-linejoin="round" d="M 126.953359 6.002478 L 132.953359 1.502478 L 126.953359 -2.997522 Z M 126.953359 6.002478 " stroke="#000000" stroke-width="3" stroke-opacity="1" stroke-miterlimit="4"/><g fill="#000000" fill-opacity="1"><g transform="translate(435.138503, 241.62446)"><g><path d="M 3.734375 0 L 3.734375 -29.8125 L 16.34375 -29.8125 C 17.625 -29.8125 18.796875 -29.546875 19.859375 -29.015625 C 20.929688 -28.484375 21.863281 -27.765625 22.65625 -26.859375 C 23.457031 -25.953125 24.070312 -24.941406 24.5 -23.828125 C 24.9375 -22.722656 25.15625 -21.597656 25.15625 -20.453125 C 25.15625 -19.023438 24.878906 -17.679688 24.328125 -16.421875 C 23.785156 -15.160156 23.015625 -14.09375 22.015625 -13.21875 C 21.023438 -12.351562 19.859375 -11.785156 18.515625 -11.515625 L 25.828125 0 L 22.515625 0 L 15.5 -11 L 6.671875 -11 L 6.671875 0 Z M 6.671875 -13.609375 L 16.421875 -13.609375 C 17.597656 -13.609375 18.617188 -13.929688 19.484375 -14.578125 C 20.359375 -15.222656 21.03125 -16.066406 21.5 -17.109375 C 21.976562 -18.160156 22.21875 -19.273438 22.21875 -20.453125 C 22.21875 -21.660156 21.941406 -22.773438 21.390625 -23.796875 C 20.847656 -24.816406 20.117188 -25.640625 19.203125 -26.265625 C 18.296875 -26.898438 17.285156 -27.21875 16.171875 -27.21875 L 6.671875 -27.21875 Z M 6.671875 -13.609375 "/></g></g></g><g fill="#000000" fill-opacity="1"><g transform="translate(461.8925, 241.62446)"><g><path d="M 12.59375 0.421875 C 11.03125 0.421875 9.578125 0.117188 8.234375 -0.484375 C 6.890625 -1.085938 5.726562 -1.910156 4.75 -2.953125 C 3.769531 -4.003906 3.003906 -5.21875 2.453125 -6.59375 C 1.910156 -7.96875 1.640625 -9.4375 1.640625 -11 C 1.640625 -13.039062 2.109375 -14.914062 3.046875 -16.625 C 3.984375 -18.332031 5.273438 -19.695312 6.921875 -20.71875 C 8.578125 -21.75 10.457031 -22.265625 12.5625 -22.265625 C 14.71875 -22.265625 16.597656 -21.742188 18.203125 -20.703125 C 19.816406 -19.671875 21.082031 -18.304688 22 -16.609375 C 22.925781 -14.910156 23.390625 -13.054688 23.390625 -11.046875 C 23.390625 -10.816406 23.390625 -10.597656 23.390625 -10.390625 C 23.390625 -10.179688 23.378906 -10.019531 23.359375 -9.90625 L 4.625 -9.90625 C 4.757812 -8.34375 5.195312 -6.953125 5.9375 -5.734375 C 6.6875 -4.515625 7.65625 -3.546875 8.84375 -2.828125 C 10.03125 -2.117188 11.320312 -1.765625 12.71875 -1.765625 C 14.15625 -1.765625 15.507812 -2.128906 16.78125 -2.859375 C 18.050781 -3.585938 18.941406 -4.539062 19.453125 -5.71875 L 21.921875 -5.046875 C 21.472656 -4.003906 20.785156 -3.0625 19.859375 -2.21875 C 18.941406 -1.382812 17.859375 -0.734375 16.609375 -0.265625 C 15.359375 0.191406 14.019531 0.421875 12.59375 0.421875 Z M 4.53125 -11.96875 L 20.703125 -11.96875 C 20.585938 -13.5625 20.160156 -14.957031 19.421875 -16.15625 C 18.679688 -17.363281 17.710938 -18.3125 16.515625 -19 C 15.328125 -19.6875 14.019531 -20.03125 12.59375 -20.03125 C 11.164062 -20.03125 9.863281 -19.6875 8.6875 -19 C 7.519531 -18.3125 6.5625 -17.359375 5.8125 -16.140625 C 5.070312 -14.929688 4.644531 -13.539062 4.53125 -11.96875 Z M 4.53125 -11.96875 "/></g></g></g><g fill="#000000" fill-opacity="1"><g transform="translate(485.958496, 241.62446)"><g><path d="M 30.703125 -21.875 L 33.515625 -21.875 L 24.109375 0 L 21.625 0 L 17.046875 -10.875 L 12.515625 0 L 10.03125 0 L 0.625 -21.875 L 3.40625 -21.875 L 11.375 -2.9375 L 15.40625 -12.8125 L 11.71875 -21.84375 L 14.28125 -21.84375 L 17.046875 -14.734375 L 19.859375 -21.84375 L 22.390625 -21.84375 L 18.734375 -12.8125 L 22.765625 -2.9375 Z M 30.703125 -21.875 "/></g></g></g><g fill="#000000" fill-opacity="1"><g transform="translate(519.558497, 241.62446)"><g><path d="M 1.390625 -6.296875 C 1.390625 -7.671875 1.78125 -8.851562 2.5625 -9.84375 C 3.34375 -10.84375 4.425781 -11.613281 5.8125 -12.15625 C 7.195312 -12.707031 8.800781 -12.984375 10.625 -12.984375 C 11.6875 -12.984375 12.789062 -12.894531 13.9375 -12.71875 C 15.09375 -12.550781 16.117188 -12.300781 17.015625 -11.96875 L 17.015625 -13.8125 C 17.015625 -15.664062 16.46875 -17.132812 15.375 -18.21875 C 14.28125 -19.3125 12.769531 -19.859375 10.84375 -19.859375 C 9.664062 -19.859375 8.507812 -19.640625 7.375 -19.203125 C 6.238281 -18.773438 5.054688 -18.140625 3.828125 -17.296875 L 2.734375 -19.3125 C 4.160156 -20.300781 5.554688 -21.039062 6.921875 -21.53125 C 8.296875 -22.019531 9.695312 -22.265625 11.125 -22.265625 C 13.8125 -22.265625 15.9375 -21.492188 17.5 -19.953125 C 19.070312 -18.410156 19.859375 -16.28125 19.859375 -13.5625 L 19.859375 -3.4375 C 19.859375 -3.050781 19.941406 -2.765625 20.109375 -2.578125 C 20.285156 -2.398438 20.554688 -2.296875 20.921875 -2.265625 L 20.921875 0 C 20.609375 0.03125 20.335938 0.0546875 20.109375 0.078125 C 19.890625 0.109375 19.722656 0.109375 19.609375 0.078125 C 18.910156 0.0546875 18.378906 -0.160156 18.015625 -0.578125 C 17.648438 -1.003906 17.457031 -1.457031 17.4375 -1.9375 L 17.390625 -3.53125 C 16.410156 -2.269531 15.132812 -1.296875 13.5625 -0.609375 C 12 0.078125 10.40625 0.421875 8.78125 0.421875 C 7.375 0.421875 6.101562 0.117188 4.96875 -0.484375 C 3.84375 -1.085938 2.960938 -1.898438 2.328125 -2.921875 C 1.703125 -3.941406 1.390625 -5.066406 1.390625 -6.296875 Z M 16.046875 -4.625 C 16.347656 -5.007812 16.582031 -5.382812 16.75 -5.75 C 16.925781 -6.113281 17.015625 -6.4375 17.015625 -6.71875 L 17.015625 -9.90625 C 16.054688 -10.269531 15.066406 -10.550781 14.046875 -10.75 C 13.023438 -10.945312 12 -11.046875 10.96875 -11.046875 C 8.914062 -11.046875 7.257812 -10.640625 6 -9.828125 C 4.738281 -9.015625 4.109375 -7.910156 4.109375 -6.515625 C 4.109375 -5.703125 4.316406 -4.9375 4.734375 -4.21875 C 5.160156 -3.507812 5.78125 -2.921875 6.59375 -2.453125 C 7.40625 -1.992188 8.359375 -1.765625 9.453125 -1.765625 C 10.828125 -1.765625 12.109375 -2.03125 13.296875 -2.5625 C 14.484375 -3.09375 15.398438 -3.78125 16.046875 -4.625 Z M 16.046875 -4.625 "/></g></g></g><g fill="#000000" fill-opacity="1"><g transform="translate(542.448499, 241.62446)"><g><path d="M 14.0625 -19.359375 C 12.164062 -19.304688 10.492188 -18.773438 9.046875 -17.765625 C 7.609375 -16.753906 6.59375 -15.367188 6 -13.609375 L 6 0 L 3.15625 0 L 3.15625 -21.875 L 5.84375 -21.875 L 5.84375 -16.625 C 6.59375 -18.164062 7.585938 -19.410156 8.828125 -20.359375 C 10.078125 -21.316406 11.40625 -21.851562 12.8125 -21.96875 C 13.09375 -22 13.335938 -22.015625 13.546875 -22.015625 C 13.753906 -22.015625 13.925781 -22 14.0625 -21.96875 Z M 14.0625 -19.359375 "/></g></g></g><g fill="#000000" fill-opacity="1"><g transform="translate(556.602493, 241.62446)"><g><path d="M 1.6875 -10.875 C 1.6875 -12.945312 2.109375 -14.84375 2.953125 -16.5625 C 3.804688 -18.289062 4.988281 -19.671875 6.5 -20.703125 C 8.019531 -21.742188 9.742188 -22.265625 11.671875 -22.265625 C 13.492188 -22.265625 15.125 -21.78125 16.5625 -20.8125 C 18.007812 -19.84375 19.140625 -18.671875 19.953125 -17.296875 L 19.953125 -30.65625 L 22.8125 -30.65625 L 22.8125 -3.4375 C 22.8125 -3.050781 22.894531 -2.765625 23.0625 -2.578125 C 23.226562 -2.398438 23.476562 -2.296875 23.8125 -2.265625 L 23.8125 0 C 23.25 0.0820312 22.816406 0.109375 22.515625 0.078125 C 21.921875 0.0546875 21.398438 -0.175781 20.953125 -0.625 C 20.503906 -1.070312 20.28125 -1.5625 20.28125 -2.09375 L 20.28125 -4.234375 C 19.414062 -2.804688 18.238281 -1.671875 16.75 -0.828125 C 15.269531 0.00390625 13.734375 0.421875 12.140625 0.421875 C 10.628906 0.421875 9.234375 0.113281 7.953125 -0.5 C 6.679688 -1.113281 5.578125 -1.953125 4.640625 -3.015625 C 3.703125 -4.085938 2.972656 -5.300781 2.453125 -6.65625 C 1.941406 -8.007812 1.6875 -9.414062 1.6875 -10.875 Z M 19.953125 -7.515625 L 19.953125 -14.28125 C 19.585938 -15.289062 19 -16.207031 18.1875 -17.03125 C 17.375 -17.851562 16.457031 -18.507812 15.4375 -19 C 14.414062 -19.488281 13.398438 -19.734375 12.390625 -19.734375 C 11.210938 -19.734375 10.144531 -19.488281 9.1875 -19 C 8.238281 -18.507812 7.421875 -17.84375 6.734375 -17 C 6.054688 -16.164062 5.535156 -15.21875 5.171875 -14.15625 C 4.804688 -13.09375 4.625 -12 4.625 -10.875 C 4.625 -9.695312 4.828125 -8.578125 5.234375 -7.515625 C 5.640625 -6.453125 6.21875 -5.503906 6.96875 -4.671875 C 7.726562 -3.847656 8.597656 -3.210938 9.578125 -2.765625 C 10.554688 -2.316406 11.617188 -2.09375 12.765625 -2.09375 C 13.492188 -2.09375 14.25 -2.234375 15.03125 -2.515625 C 15.820312 -2.796875 16.570312 -3.179688 17.28125 -3.671875 C 18 -4.160156 18.59375 -4.738281 19.0625 -5.40625 C 19.539062 -6.082031 19.835938 -6.785156 19.953125 -7.515625 Z M 19.953125 -7.515625 "/></g></g></g><g clip-path="url(#5a9d2228e8)"><g transform="matrix(1, 0, 0, 1, 613, 558)"><g clip-path="url(#f5a5ed9230)"><g clip-path="url(#b2dd281094)"><path fill="#ffffff" d="M 0.125 0.363281 L 86.503906 0.363281 L 86.503906 86.742188 L 0.125 86.742188 Z M 0.125 0.363281 " fill-opacity="1" fill-rule="nonzero"/></g></g></g></g><g clip-path="url(#1e2b39c03d)"><path stroke-linecap="butt" transform="matrix(0.75, 0, 0, 0.75, 613.123919, 558.362104)" fill="none" stroke-linejoin="miter" d="M 0.00144083 0.00156979 L 115.173314 0.00156979 L 115.173314 115.173443 L 0.00144083 115.173443 Z M 0.00144083 0.00156979 " stroke="#067529" stroke-width="16" stroke-opacity="1" stroke-miterlimit="4"/></g><g clip-path="url(#3220d822a3)"><g transform="matrix(1, 0, 0, 1, 696, 558)"><g clip-path="url(#013d5302b4)"><g clip-path="url(#c91960b431)"><path fill="#ffffff" d="M 0.167969 0.363281 L 86.550781 0.363281 L 86.550781 86.742188 L 0.167969 86.742188 Z M 0.167969 0.363281 " fill-opacity="1" fill-rule="nonzero"/></g></g></g></g><g clip-path="url(#13fcf13436)"><path stroke-linecap="butt" transform="matrix(0.75, 0, 0, 0.75, 696.169891, 558.362104)" fill="none" stroke-linejoin="miter" d="M -0.00256327 0.00156979 L 115.16931 0.00156979 L 115.16931 115.173443 L -0.00256327 115.173443 Z M -0.00256327 0.00156979 " stroke="#067529" stroke-width="16" stroke-opacity="1" stroke-miterlimit="4"/></g><g clip-path="url(#d415daccf9)"><g transform="matrix(1, 0, 0, 1, 778, 558)"><g clip-path="url(#f3fecbcfa6)"><g clip-path="url(#e6dc678ba2)"><path fill="#ffffff" d="M 0.125 0.363281 L 86.503906 0.363281 L 86.503906 86.742188 L 0.125 86.742188 Z M 0.125 0.363281 " fill-opacity="1" fill-rule="nonzero"/></g></g></g></g><g clip-path="url(#cf67b84ea2)"><path stroke-linecap="butt" transform="matrix(0.75, 0, 0, 0.75, 778.123863, 558.362104)" fill="none" stroke-linejoin="miter" d="M 0.0015159 0.00156979 L 115.173389 0.00156979 L 115.173389 115.173443 L 0.0015159 115.173443 Z M 0.0015159 0.00156979 " stroke="#067529" stroke-width="16" stroke-opacity="1" stroke-miterlimit="4"/></g><g clip-path="url(#86afb6632f)"><g transform="matrix(1, 0, 0, 1, 613, 641)"><g clip-path="url(#813dab251c)"><g clip-path="url(#713524395f)"><path fill="#ffffff" d="M 0.125 0.40625 L 86.503906 0.40625 L 86.503906 86.789062 L 0.125 86.789062 Z M 0.125 0.40625 " fill-opacity="1" fill-rule="nonzero"/></g></g></g></g><g clip-path="url(#29351c725c)"><path stroke-linecap="butt" transform="matrix(0.75, 0, 0, 0.75, 613.123919, 641.407956)" fill="none" stroke-linejoin="miter" d="M 0.00144083 -0.00227431 L 115.173314 -0.00227431 L 115.173314 115.169599 L 0.00144083 115.169599 Z M 0.00144083 -0.00227431 " stroke="#067529" stroke-width="16" stroke-opacity="1" stroke-miterlimit="4"/></g><g clip-path="url(#29126ddfca)"><g transform="matrix(1, 0, 0, 1, 696, 641)"><g clip-path="url(#5a60c3445a)"><g clip-path="url(#1729be6bc5)"><path fill="#ffffff" d="M 0.167969 0.40625 L 86.550781 0.40625 L 86.550781 86.789062 L 0.167969 86.789062 Z M 0.167969 0.40625 " fill-opacity="1" fill-rule="nonzero"/></g></g></g></g><g clip-path="url(#ece69856fe)"><path stroke-linecap="butt" transform="matrix(0.75, 0, 0, 0.75, 696.169891, 641.407956)" fill="none" stroke-linejoin="miter" d="M -0.00256327 -0.00227431 L 115.16931 -0.00227431 L 115.16931 115.169599 L -0.00256327 115.169599 Z M -0.00256327 -0.00227431 " stroke="#067529" stroke-width="16" stroke-opacity="1" stroke-miterlimit="4"/></g><g clip-path="url(#28ae91c311)"><g transform="matrix(1, 0, 0, 1, 778, 641)"><g clip-path="url(#57b14d10aa)"><g clip-path="url(#64ed2c7285)"><path fill="#ffffff" d="M 0.125 0.40625 L 86.503906 0.40625 L 86.503906 86.789062 L 0.125 86.789062 Z M 0.125 0.40625 " fill-opacity="1" fill-rule="nonzero"/></g></g></g></g><g clip-path="url(#a781131548)"><path stroke-linecap="butt" transform="matrix(0.75, 0, 0, 0.75, 778.123863, 641.407956)" fill="none" stroke-linejoin="miter" d="M 0.0015159 -0.00227431 L 115.173389 -0.00227431 L 115.173389 115.169599 L 0.0015159 115.169599 Z M 0.0015159 -0.00227431 " stroke="#067529" stroke-width="16" stroke-opacity="1" stroke-miterlimit="4"/></g><g clip-path="url(#bdb9562793)"><g transform="matrix(1, 0, 0, 1, 613, 723)"><g clip-path="url(#c6e5d8d202)"><g clip-path="url(#f5a424b942)"><path fill="#ffffff" d="M 0.125 0.621094 L 86.503906 0.621094 L 86.503906 87 L 0.125 87 Z M 0.125 0.621094 " fill-opacity="1" fill-rule="nonzero"/></g></g></g></g><g clip-path="url(#5169056536)"><path stroke-linecap="butt" transform="matrix(0.75, 0, 0, 0.75, 613.123919, 723.6206)" fill="none" stroke-linejoin="miter" d="M 0.00144083 0.000658872 L 115.173314 0.000658872 L 115.173314 115.172532 L 0.00144083 115.172532 Z M 0.00144083 0.000658872 " stroke="#067529" stroke-width="16" stroke-opacity="1" stroke-miterlimit="4"/></g><g clip-path="url(#4e185f7b7e)"><g transform="matrix(1, 0, 0, 1, 696, 723)"><g clip-path="url(#2628945cfd)"><g clip-path="url(#f9138707cc)"><path fill="#ffffff" d="M 0.167969 0.621094 L 86.550781 0.621094 L 86.550781 87 L 0.167969 87 Z M 0.167969 0.621094 " fill-opacity="1" fill-rule="nonzero"/></g></g></g></g><g clip-path="url(#e2b3022b75)"><path stroke-linecap="butt" transform="matrix(0.75, 0, 0, 0.75, 696.169891, 723.6206)" fill="none" stroke-linejoin="miter" d="M -0.00256327 0.000658872 L 115.16931 0.000658872 L 115.16931 115.172532 L -0.00256327 115.172532 Z M -0.00256327 0.000658872 " stroke="#067529" stroke-width="16" stroke-opacity="1" stroke-miterlimit="4"/></g><g clip-path="url(#580a6092c2)"><g transform="matrix(1, 0, 0, 1, 778, 723)"><g clip-path="url(#e7aee96b2f)"><g clip-path="url(#2d47dfed96)"><path fill="#ffffff" d="M 0.125 0.621094 L 86.503906 0.621094 L 86.503906 87 L 0.125 87 Z M 0.125 0.621094 " fill-opacity="1" fill-rule="nonzero"/></g></g></g></g><g clip-path="url(#268972965d)"><path stroke-linecap="butt" transform="matrix(0.75, 0, 0, 0.75, 778.123863, 723.6206)" fill="none" stroke-linejoin="miter" d="M 0.0015159 0.000658872 L 115.173389 0.000658872 L 115.173389 115.172532 L 0.0015159 115.172532 Z M 0.0015159 0.000658872 " stroke="#067529" stroke-width="16" stroke-opacity="1" stroke-miterlimit="4"/></g><g fill="#067529" fill-opacity="1"><g transform="translate(996.330652, 696.064449)"><g><path d="M 1.390625 -6.296875 C 1.390625 -7.671875 1.78125 -8.851562 2.5625 -9.84375 C 3.34375 -10.84375 4.425781 -11.613281 5.8125 -12.15625 C 7.195312 -12.707031 8.800781 -12.984375 10.625 -12.984375 C 11.6875 -12.984375 12.789062 -12.894531 13.9375 -12.71875 C 15.09375 -12.550781 16.117188 -12.300781 17.015625 -11.96875 L 17.015625 -13.8125 C 17.015625 -15.664062 16.46875 -17.132812 15.375 -18.21875 C 14.28125 -19.3125 12.769531 -19.859375 10.84375 -19.859375 C 9.664062 -19.859375 8.507812 -19.640625 7.375 -19.203125 C 6.238281 -18.773438 5.054688 -18.140625 3.828125 -17.296875 L 2.734375 -19.3125 C 4.160156 -20.300781 5.554688 -21.039062 6.921875 -21.53125 C 8.296875 -22.019531 9.695312 -22.265625 11.125 -22.265625 C 13.8125 -22.265625 15.9375 -21.492188 17.5 -19.953125 C 19.070312 -18.410156 19.859375 -16.28125 19.859375 -13.5625 L 19.859375 -3.4375 C 19.859375 -3.050781 19.941406 -2.765625 20.109375 -2.578125 C 20.285156 -2.398438 20.554688 -2.296875 20.921875 -2.265625 L 20.921875 0 C 20.609375 0.03125 20.335938 0.0546875 20.109375 0.078125 C 19.890625 0.109375 19.722656 0.109375 19.609375 0.078125 C 18.910156 0.0546875 18.378906 -0.160156 18.015625 -0.578125 C 17.648438 -1.003906 17.457031 -1.457031 17.4375 -1.9375 L 17.390625 -3.53125 C 16.410156 -2.269531 15.132812 -1.296875 13.5625 -0.609375 C 12 0.078125 10.40625 0.421875 8.78125 0.421875 C 7.375 0.421875 6.101562 0.117188 4.96875 -0.484375 C 3.84375 -1.085938 2.960938 -1.898438 2.328125 -2.921875 C 1.703125 -3.941406 1.390625 -5.066406 1.390625 -6.296875 Z M 16.046875 -4.625 C 16.347656 -5.007812 16.582031 -5.382812 16.75 -5.75 C 16.925781 -6.113281 17.015625 -6.4375 17.015625 -6.71875 L 17.015625 -9.90625 C 16.054688 -10.269531 15.066406 -10.550781 14.046875 -10.75 C 13.023438 -10.945312 12 -11.046875 10.96875 -11.046875 C 8.914062 -11.046875 7.257812 -10.640625 6 -9.828125 C 4.738281 -9.015625 4.109375 -7.910156 4.109375 -6.515625 C 4.109375 -5.703125 4.316406 -4.9375 4.734375 -4.21875 C 5.160156 -3.507812 5.78125 -2.921875 6.59375 -2.453125 C 7.40625 -1.992188 8.359375 -1.765625 9.453125 -1.765625 C 10.828125 -1.765625 12.109375 -2.03125 13.296875 -2.5625 C 14.484375 -3.09375 15.398438 -3.78125 16.046875 -4.625 Z M 16.046875 -4.625 "/></g></g></g><g fill="#067529" fill-opacity="1"><g transform="translate(1019.220654, 696.064449)"><g/></g></g><g fill="#067529" fill-opacity="1"><g transform="translate(1029.930653, 696.064449)"><g><path d="M 1.84375 0 C 1.84375 -0.945312 1.925781 -1.90625 2.09375 -2.875 C 2.269531 -3.84375 2.59375 -4.800781 3.0625 -5.75 C 3.539062 -6.707031 4.238281 -7.625 5.15625 -8.5 C 6.082031 -9.382812 7.300781 -10.21875 8.8125 -11 C 9.625 -11.425781 10.460938 -11.84375 11.328125 -12.25 C 12.203125 -12.65625 13.023438 -13.101562 13.796875 -13.59375 C 14.566406 -14.082031 15.179688 -14.640625 15.640625 -15.265625 C 16.109375 -15.898438 16.34375 -16.648438 16.34375 -17.515625 C 16.34375 -18.210938 16.140625 -18.894531 15.734375 -19.5625 C 15.328125 -20.238281 14.707031 -20.785156 13.875 -21.203125 C 13.050781 -21.628906 12.023438 -21.84375 10.796875 -21.84375 C 9.898438 -21.84375 9.085938 -21.710938 8.359375 -21.453125 C 7.628906 -21.203125 6.984375 -20.890625 6.421875 -20.515625 C 5.867188 -20.140625 5.394531 -19.757812 5 -19.375 C 4.601562 -19 4.28125 -18.6875 4.03125 -18.4375 L 2.21875 -20.40625 C 2.363281 -20.570312 2.679688 -20.875 3.171875 -21.3125 C 3.660156 -21.75 4.289062 -22.203125 5.0625 -22.671875 C 5.832031 -23.148438 6.738281 -23.554688 7.78125 -23.890625 C 8.832031 -24.234375 9.988281 -24.40625 11.25 -24.40625 C 12.957031 -24.40625 14.421875 -24.101562 15.640625 -23.5 C 16.859375 -22.894531 17.789062 -22.085938 18.4375 -21.078125 C 19.082031 -20.078125 19.40625 -18.988281 19.40625 -17.8125 C 19.40625 -16.664062 19.160156 -15.675781 18.671875 -14.84375 C 18.179688 -14.019531 17.550781 -13.304688 16.78125 -12.703125 C 16.007812 -12.097656 15.207031 -11.578125 14.375 -11.140625 C 13.550781 -10.710938 12.804688 -10.34375 12.140625 -10.03125 C 10.816406 -9.414062 9.707031 -8.800781 8.8125 -8.1875 C 7.914062 -7.570312 7.203125 -6.945312 6.671875 -6.3125 C 6.140625 -5.6875 5.726562 -5.070312 5.4375 -4.46875 C 5.144531 -3.863281 4.941406 -3.242188 4.828125 -2.609375 L 19.859375 -2.609375 L 19.859375 0 Z M 1.84375 0 "/></g></g></g><g fill="#067529" fill-opacity="1"><g transform="translate(1051.812648, 696.064449)"><g><path d="M 3.734375 0 L 3.734375 -29.8125 L 13.859375 -29.8125 C 17.023438 -29.8125 19.664062 -29.144531 21.78125 -27.8125 C 23.894531 -26.488281 25.484375 -24.695312 26.546875 -22.4375 C 27.609375 -20.1875 28.140625 -17.691406 28.140625 -14.953125 C 28.140625 -11.929688 27.554688 -9.300781 26.390625 -7.0625 C 25.234375 -4.820312 23.582031 -3.082031 21.4375 -1.84375 C 19.300781 -0.613281 16.773438 0 13.859375 0 Z M 25.203125 -14.953125 C 25.203125 -17.328125 24.757812 -19.4375 23.875 -21.28125 C 22.988281 -23.132812 21.707031 -24.585938 20.03125 -25.640625 C 18.351562 -26.691406 16.296875 -27.21875 13.859375 -27.21875 L 6.671875 -27.21875 L 6.671875 -2.609375 L 13.859375 -2.609375 C 16.328125 -2.609375 18.398438 -3.148438 20.078125 -4.234375 C 21.753906 -5.328125 23.023438 -6.804688 23.890625 -8.671875 C 24.765625 -10.535156 25.203125 -12.628906 25.203125 -14.953125 Z M 25.203125 -14.953125 "/></g></g></g><g fill="#067529" fill-opacity="1"><g transform="translate(1081.842641, 696.064449)"><g/></g></g><g fill="#067529" fill-opacity="1"><g transform="translate(1092.552639, 696.064449)"><g><path d="M 11.921875 0.296875 C 10.441406 0.296875 9.070312 -0.0078125 7.8125 -0.625 C 6.550781 -1.238281 5.460938 -2.070312 4.546875 -3.125 C 3.640625 -4.175781 2.9375 -5.375 2.4375 -6.71875 C 1.9375 -8.0625 1.6875 -9.445312 1.6875 -10.875 C 1.6875 -12.414062 1.929688 -13.863281 2.421875 -15.21875 C 2.910156 -16.582031 3.609375 -17.796875 4.515625 -18.859375 C 5.421875 -19.921875 6.488281 -20.753906 7.71875 -21.359375 C 8.957031 -21.960938 10.332031 -22.265625 11.84375 -22.265625 C 13.71875 -22.265625 15.347656 -21.785156 16.734375 -20.828125 C 18.117188 -19.878906 19.289062 -18.703125 20.25 -17.296875 L 20.25 -21.875 L 22.8125 -21.875 L 22.8125 0.078125 C 22.8125 2.097656 22.328125 3.800781 21.359375 5.1875 C 20.390625 6.570312 19.085938 7.613281 17.453125 8.3125 C 15.816406 9.007812 14.03125 9.359375 12.09375 9.359375 C 9.601562 9.359375 7.585938 8.910156 6.046875 8.015625 C 4.503906 7.117188 3.242188 5.914062 2.265625 4.40625 L 4.03125 3.03125 C 4.894531 4.394531 6.046875 5.410156 7.484375 6.078125 C 8.929688 6.753906 10.46875 7.09375 12.09375 7.09375 C 13.519531 7.09375 14.828125 6.832031 16.015625 6.3125 C 17.210938 5.800781 18.164062 5.023438 18.875 3.984375 C 19.59375 2.953125 19.953125 1.648438 19.953125 0.078125 L 19.953125 -4.234375 C 19.109375 -2.867188 17.957031 -1.769531 16.5 -0.9375 C 15.050781 -0.113281 13.523438 0.296875 11.921875 0.296875 Z M 12.71875 -2.09375 C 13.59375 -2.09375 14.425781 -2.25 15.21875 -2.5625 C 16.019531 -2.875 16.753906 -3.285156 17.421875 -3.796875 C 18.097656 -4.316406 18.660156 -4.898438 19.109375 -5.546875 C 19.554688 -6.191406 19.835938 -6.847656 19.953125 -7.515625 L 19.953125 -14.28125 C 19.523438 -15.34375 18.921875 -16.285156 18.140625 -17.109375 C 17.359375 -17.941406 16.46875 -18.585938 15.46875 -19.046875 C 14.476562 -19.503906 13.453125 -19.734375 12.390625 -19.734375 C 11.160156 -19.734375 10.0625 -19.472656 9.09375 -18.953125 C 8.125 -18.441406 7.3125 -17.757812 6.65625 -16.90625 C 6 -16.050781 5.488281 -15.09375 5.125 -14.03125 C 4.757812 -12.96875 4.578125 -11.90625 4.578125 -10.84375 C 4.578125 -9.664062 4.785156 -8.550781 5.203125 -7.5 C 5.628906 -6.445312 6.210938 -5.503906 6.953125 -4.671875 C 7.691406 -3.847656 8.554688 -3.210938 9.546875 -2.765625 C 10.546875 -2.316406 11.601562 -2.09375 12.71875 -2.09375 Z M 12.71875 -2.09375 "/></g></g><g transform="translate(1118.508638, 696.064449)"><g><path d="M 14.0625 -19.359375 C 12.164062 -19.304688 10.492188 -18.773438 9.046875 -17.765625 C 7.609375 -16.753906 6.59375 -15.367188 6 -13.609375 L 6 0 L 3.15625 0 L 3.15625 -21.875 L 5.84375 -21.875 L 5.84375 -16.625 C 6.59375 -18.164062 7.585938 -19.410156 8.828125 -20.359375 C 10.078125 -21.316406 11.40625 -21.851562 12.8125 -21.96875 C 13.09375 -22 13.335938 -22.015625 13.546875 -22.015625 C 13.753906 -22.015625 13.925781 -22 14.0625 -21.96875 Z M 14.0625 -19.359375 "/></g></g></g><g fill="#067529" fill-opacity="1"><g transform="translate(1133.250631, 696.064449)"><g><path d="M 3.15625 0 L 3.15625 -21.875 L 6 -21.875 L 6 0 Z M 3.15625 -26.453125 L 3.15625 -30.65625 L 6 -30.65625 L 6 -26.453125 Z M 3.15625 -26.453125 "/></g></g></g><g fill="#067529" fill-opacity="1"><g transform="translate(1142.406625, 696.064449)"><g><path d="M 1.6875 -10.875 C 1.6875 -12.945312 2.109375 -14.84375 2.953125 -16.5625 C 3.804688 -18.289062 4.988281 -19.671875 6.5 -20.703125 C 8.019531 -21.742188 9.742188 -22.265625 11.671875 -22.265625 C 13.492188 -22.265625 15.125 -21.78125 16.5625 -20.8125 C 18.007812 -19.84375 19.140625 -18.671875 19.953125 -17.296875 L 19.953125 -30.65625 L 22.8125 -30.65625 L 22.8125 -3.4375 C 22.8125 -3.050781 22.894531 -2.765625 23.0625 -2.578125 C 23.226562 -2.398438 23.476562 -2.296875 23.8125 -2.265625 L 23.8125 0 C 23.25 0.0820312 22.816406 0.109375 22.515625 0.078125 C 21.921875 0.0546875 21.398438 -0.175781 20.953125 -0.625 C 20.503906 -1.070312 20.28125 -1.5625 20.28125 -2.09375 L 20.28125 -4.234375 C 19.414062 -2.804688 18.238281 -1.671875 16.75 -0.828125 C 15.269531 0.00390625 13.734375 0.421875 12.140625 0.421875 C 10.628906 0.421875 9.234375 0.113281 7.953125 -0.5 C 6.679688 -1.113281 5.578125 -1.953125 4.640625 -3.015625 C 3.703125 -4.085938 2.972656 -5.300781 2.453125 -6.65625 C 1.941406 -8.007812 1.6875 -9.414062 1.6875 -10.875 Z M 19.953125 -7.515625 L 19.953125 -14.28125 C 19.585938 -15.289062 19 -16.207031 18.1875 -17.03125 C 17.375 -17.851562 16.457031 -18.507812 15.4375 -19 C 14.414062 -19.488281 13.398438 -19.734375 12.390625 -19.734375 C 11.210938 -19.734375 10.144531 -19.488281 9.1875 -19 C 8.238281 -18.507812 7.421875 -17.84375 6.734375 -17 C 6.054688 -16.164062 5.535156 -15.21875 5.171875 -14.15625 C 4.804688 -13.09375 4.625 -12 4.625 -10.875 C 4.625 -9.695312 4.828125 -8.578125 5.234375 -7.515625 C 5.640625 -6.453125 6.21875 -5.503906 6.96875 -4.671875 C 7.726562 -3.847656 8.597656 -3.210938 9.578125 -2.765625 C 10.554688 -2.316406 11.617188 -2.09375 12.765625 -2.09375 C 13.492188 -2.09375 14.25 -2.234375 15.03125 -2.515625 C 15.820312 -2.796875 16.570312 -3.179688 17.28125 -3.671875 C 18 -4.160156 18.59375 -4.738281 19.0625 -5.40625 C 19.539062 -6.082031 19.835938 -6.785156 19.953125 -7.515625 Z M 19.953125 -7.515625 "/></g></g></g><path stroke-linecap="butt" transform="matrix(0.749833, -0.0158316, 0.0158316, 0.749833, 864.431915, 681.223354)" fill="none" stroke-linejoin="miter" d="M 24.75127 4.501708 L 175.811058 4.497684 " stroke="#067529" stroke-width="9" stroke-opacity="1" stroke-miterlimit="4"/><path stroke-linecap="round" transform="matrix(0.749833, -0.0158316, 0.0158316, 0.749833, 864.431915, 681.223354)" fill-opacity="1" fill="#067529" fill-rule="nonzero" stroke-linejoin="round" d="M 22.499356 -9.001961 L 4.501974 4.501354 L 22.502318 17.99891 Z M 22.499356 -9.001961 " stroke="#067529" stroke-width="9" stroke-opacity="1" stroke-miterlimit="4"/></svg>